<?xml version="1.0" standalone="no"?>
<!DOCTYPE svg PUBLIC "-//W3C//DTD SVG 20010904//EN"
 "http://www.w3.org/TR/2001/REC-SVG-20010904/DTD/svg10.dtd">
<svg version="1.0" xmlns="http://www.w3.org/2000/svg"
 width="877.000000pt" height="877.000000pt" viewBox="0 0 877.000000 877.000000"
 preserveAspectRatio="xMidYMid meet">
<g transform="translate(0.000000,877.000000) scale(0.100000,-0.100000)"
fill="#000000" stroke="none">
<path fill="#168dc5" d="M5210 8705 c-369 -45 -777 -173 -1152 -361 -52 -26 -150 -62 -230
-85 -805 -227 -1814 -831 -2354 -1409 -284 -304 -421 -592 -384 -802 24 -131
114 -256 242 -335 32 -20 58 -40 58 -46 0 -5 -22 -48 -49 -96 -182 -324 -378
-765 -506 -1142 -180 -529 -268 -1000 -282 -1495 -15 -566 77 -1029 292 -1469
132 -270 277 -474 484 -682 375 -377 827 -616 1328 -703 510 -89 1074 -15
1663 217 888 349 1791 1052 2516 1959 796 995 1297 2142 1384 3171 18 207 8
648 -18 818 -85 546 -271 984 -602 1415 -95 123 -356 384 -490 490 -403 320
-845 508 -1315 560 -122 13 -457 11 -585 -5z m-15 -425 c234 -20 444 -66 723
-160 826 -275 1351 -764 1584 -1474 170 -519 166 -1216 -12 -1901 -160 -615
-459 -1209 -912 -1810 -639 -848 -1378 -1471 -2243 -1891 -411 -200 -766 -312
-1130 -359 -141 -18 -426 -21 -540 -5 -189 27 -366 90 -533 189 -258 153 -424
353 -493 591 -30 108 -37 310 -14 455 52 339 184 883 330 1360 349 1145 817
2226 1346 3112 165 275 210 313 405 338 333 42 576 20 747 -67 98 -50 166
-148 154 -223 -4 -21 -54 -111 -125 -223 -493 -775 -904 -1619 -1287 -2646
-171 -461 -350 -1008 -420 -1285 -47 -190 -135 -684 -135 -761 0 -127 53 -166
220 -164 208 3 421 68 735 226 669 336 1398 959 1950 1666 428 548 744 1171
894 1762 77 304 105 525 105 840 1 247 -13 375 -55 545 -132 524 -470 882
-996 1055 -229 75 -308 85 -643 85 -435 0 -578 -24 -900 -150 -139 -54 -404
-184 -529 -259 -275 -166 -577 -438 -765 -690 -100 -134 -147 -211 -257 -424
-133 -259 -194 -311 -374 -320 -97 -4 -202 10 -390 54 -144 34 -241 79 -302
141 -69 68 -87 111 -91 213 -3 73 0 98 23 165 93 278 402 626 860 970 706 530
1561 912 2273 1016 245 36 572 48 797 29z"/>
</g>
</svg>
