<svg width="1200" height="1040" xmlns="http://www.w3.org/2000/svg" preserveAspectRatio="xMidYMid meet">
 <metadata>Created by SGS Sandhu 2015 contact@sgssandhu.com</metadata>
 <g>
  <title>OXO Solutions Logo Vector Hign Resolutions</title>
  <g id="svg_1" fill="#168dc5" transform="translate(0,1500) scale(0.10000000149011612,-0.10000000149011612) ">
   <path id="svg_2" d="m6780,14933c0,-12 43,-171 96,-355c140,-487 379,-1447 544,-2182c25,-112 26,-110 -54,-121c-118,-15 -907,-162 -1368,-255c-772,-155 -1449,-307 -2180,-490c-197,-50 -364,-90 -371,-90c-8,0 -22,33 -36,88c-97,374 -314,1101 -456,1527c-169,505 -347,947 -419,1040c-15,20 -15,20 -16,-2c0,-12 43,-171 96,-355c103,-359 258,-960 379,-1473c76,-320 205,-880 205,-888c0,-3 -37,-15 -82,-27c-1081,-286 -2256,-644 -2798,-853c-108,-41 -247,-104 -272,-122c-23,-17 -22,-17 27,-11c28,3 230,53 450,111c489,129 1163,298 1585,399c470,112 1143,267 1145,264c19,-28 815,-3795 815,-3858c0,-11 -6,-20 -13,-20c-35,0 -903,-243 -1417,-396c-833,-249 -1556,-501 -1662,-579c-23,-17 -22,-17 27,-11c28,3 230,53 450,111c962,253 2625,655 2658,642c8,-3 39,-141 81,-358c153,-793 214,-1159 277,-1658c22,-179 44,-332 49,-340c13,-22 13,540 0,749c-26,440 -91,1058 -160,1524c-11,76 -19,140 -18,141c5,4 918,205 1563,345c823,178 2417,510 2446,510c21,0 14,26 93,-381c155,-794 223,-1205 287,-1708c22,-179 44,-332 49,-340c13,-22 13,540 0,749c-27,450 -90,1044 -164,1555c-14,93 -23,171 -21,173c18,19 1716,342 2340,446c275,46 983,156 1004,156c6,0 11,5 11,12c0,8 -58,9 -226,4c-654,-19 -1783,-150 -2983,-345c-102,-17 -186,-29 -187,-28c-1,1 -20,115 -42,252c-164,998 -438,2307 -691,3306l-78,307l156,31c659,134 1604,312 2106,395c275,46 983,156 1004,156c6,0 11,5 11,12c0,8 -58,9 -226,4c-646,-19 -1819,-154 -2954,-341c-84,-14 -155,-23 -157,-22c-1,2 -25,86 -53,186c-230,836 -481,1613 -675,2086c-58,143 -132,295 -159,330c-15,20 -15,20 -16,-2zm724,-2907c59,-238 498,-2287 700,-3276c59,-283 108,-525 111,-537c4,-19 0,-23 -27,-28c-1201,-208 -2424,-466 -3582,-756c-219,-55 -400,-98 -401,-97c-1,2 -23,129 -49,283c-165,1010 -438,2319 -687,3304c-38,151 -68,275 -67,276c16,13 2220,487 3398,731c151,31 345,71 430,89c85,19 158,34 161,34c4,1 10,-10 13,-23z"/>
   <path id="svg_3" d="m7060,11597c-71,-56 -247,-243 -396,-422c-225,-271 -515,-672 -741,-1025c-58,-91 -106,-166 -107,-167c-1,-1 -58,35 -127,81c-574,383 -1260,754 -1632,882c-181,63 -170,46 55,-84c86,-51 233,-140 325,-198c390,-248 1270,-847 1266,-862c-1,-4 -30,-55 -64,-112c-332,-558 -637,-1188 -789,-1626c-56,-162 -113,-369 -108,-386c2,-6 32,52 67,128c104,229 268,533 561,1034c134,229 498,842 504,848c2,1 150,-101 329,-227c786,-556 1140,-821 1392,-1043c55,-48 104,-88 108,-88c5,0 -6,19 -24,43c-209,268 -544,595 -955,933c-126,103 -527,408 -672,510l-72,51l208,339c362,589 640,1018 830,1279c86,118 110,155 101,155c-2,0 -29,-20 -59,-43z"/>
   <path id="svg_4" d="m9748,11980c-409,-48 -779,-298 -1013,-684c-107,-176 -189,-411 -220,-634c-25,-176 -17,-448 19,-618c123,-585 515,-1055 1021,-1223c158,-52 235,-64 410,-64c175,0 253,12 410,64c315,105 598,351 783,679c86,154 159,380 188,590c19,137 14,418 -9,545c-70,375 -229,686 -472,930c-313,312 -715,461 -1117,415zm346,-215c415,-72 798,-403 967,-835c220,-561 118,-1182 -264,-1597c-139,-152 -352,-280 -552,-333c-268,-70 -530,-42 -791,85c-207,101 -397,272 -530,477c-103,159 -183,365 -220,563c-26,138 -26,442 -1,570c99,491 406,874 822,1024c161,58 391,77 569,46z"/>
   <path id="svg_5" d="m1798,10370c-409,-48 -779,-298 -1013,-684c-107,-176 -189,-411 -220,-634c-25,-176 -17,-448 19,-618c123,-585 515,-1055 1021,-1223c158,-52 235,-64 410,-64c175,0 253,12 410,64c315,105 598,351 783,679c86,154 159,380 188,590c19,137 14,418 -9,545c-70,375 -229,686 -472,930c-313,312 -715,461 -1117,415zm346,-215c415,-72 798,-403 967,-835c220,-561 118,-1182 -264,-1597c-139,-152 -352,-280 -552,-333c-268,-70 -530,-42 -791,85c-207,101 -397,272 -530,477c-103,159 -183,365 -220,563c-26,138 -26,442 -1,570c99,491 406,874 822,1024c161,58 391,77 569,46z"/>
  </g>
 </g>
</svg>